<svg width="44" height="38" viewBox="0 0 44 38" fill="none" xmlns="http://www.w3.org/2000/svg">
<path d="M35.5446 13.9297H29.9468L23.4376 3.50236C22.7707 2.44288 21.8129 1.56208 20.6595 0.947616C19.5061 0.333153 18.1973 0.00645886 16.8634 5.10344e-05H14.1296C13.9609 -0.00153206 13.7942 0.0337366 13.6432 0.102941C13.4923 0.172146 13.3615 0.2733 13.2617 0.39804C13.1575 0.520351 13.0841 0.662244 13.0465 0.813594C13.009 0.964944 13.0084 1.12202 13.0447 1.27362L17.0804 14.069L9.26943 14.865L7.09972 11.4024C6.80124 10.9483 6.37705 10.5747 5.87023 10.3196C5.3634 10.0645 4.79198 9.93686 4.214 9.94978H1.11131C0.948087 9.949 0.786855 9.98269 0.640113 10.0483C0.493371 10.1138 0.365061 10.2095 0.265127 10.3279C0.161377 10.4465 0.0880139 10.585 0.0504587 10.7331C0.0129036 10.8812 0.0121163 11.0351 0.0481557 11.1835L2.19617 18.9045L0.0264586 26.6255C-0.00958076 26.774 -0.00879354 26.9279 0.0287616 27.076C0.0663168 27.2241 0.13968 27.3626 0.24343 27.4812C0.345573 27.6023 0.477368 27.6996 0.628146 27.7653C0.778923 27.831 0.944446 27.8632 1.11131 27.8593H4.214C4.77735 27.8583 5.33089 27.7241 5.82118 27.4696C6.31147 27.2152 6.72193 26.849 7.01293 26.4066L9.18264 22.9441L16.9936 23.7401L13.0447 36.5355C13.0023 36.6842 12.9959 36.8396 13.0259 36.9909C13.0559 37.1421 13.1215 37.2855 13.2183 37.411C13.3182 37.5358 13.4489 37.6369 13.5999 37.7061C13.7508 37.7753 13.9175 37.8106 14.0862 37.809H16.8634C18.1862 37.7923 19.4816 37.4607 20.6226 36.8467C21.7636 36.2328 22.7112 35.3575 23.3726 34.3067L29.8817 23.8794H35.4795C36.7425 23.8858 37.9941 23.6602 39.1604 23.2159C40.3268 22.7716 41.3844 22.1176 42.2707 21.2925C42.6171 20.9812 42.8923 20.6097 43.0802 20.1996C43.268 19.7896 43.3648 19.3493 43.3648 18.9045C43.3648 18.4598 43.268 18.0195 43.0802 17.6094C42.8923 17.1994 42.6171 16.8279 42.2707 16.5166C41.392 15.6986 40.345 15.0488 39.1905 14.6047C38.0359 14.1607 36.7966 13.9312 35.5446 13.9297ZM40.817 19.8995C39.4159 21.1766 37.52 21.8922 35.5446 21.8895H29.3176C29.1282 21.8905 28.9425 21.937 28.7788 22.0243C28.6152 22.1115 28.4792 22.2366 28.3846 22.3869L21.5717 33.3117C21.0975 34.0732 20.4122 34.7061 19.5854 35.1464C18.7586 35.5867 17.8195 35.8188 16.8634 35.8191H15.5616L19.5539 23.163C19.5974 23.0231 19.6084 22.8764 19.5859 22.7324C19.5635 22.5884 19.5082 22.4503 19.4237 22.3272C19.3313 22.2107 19.2148 22.1121 19.0807 22.0369C18.9467 21.9618 18.7978 21.9117 18.6426 21.8895L8.87888 20.8945C8.67055 20.8736 8.46002 20.9074 8.27181 20.9919C8.0836 21.0765 7.92543 21.2083 7.81572 21.3721L5.19037 25.352C5.09302 25.4986 4.95592 25.6197 4.79244 25.7034C4.62895 25.7871 4.44462 25.8306 4.2574 25.8296H2.49993L4.36588 19.1433C4.38679 18.9847 4.38679 18.8244 4.36588 18.6657L2.49993 11.9397H4.214C4.40123 11.9387 4.58555 11.9822 4.74904 12.0659C4.91253 12.1496 5.04962 12.2706 5.14698 12.4173L7.77233 16.3972C7.88391 16.5593 8.0424 16.6898 8.23013 16.7742C8.41785 16.8585 8.62743 16.8933 8.83549 16.8748L18.5992 15.8798C18.7544 15.8576 18.9033 15.8075 19.0373 15.7324C19.1714 15.6572 19.2879 15.5586 19.3803 15.442C19.4662 15.3269 19.5259 15.1971 19.5557 15.0603C19.5856 14.9235 19.5849 14.7826 19.5539 14.6461L15.5616 1.99H16.8634C17.8195 1.99028 18.7586 2.22234 19.5854 2.66265C20.4122 3.10297 21.0975 3.73591 21.5717 4.49733L28.3846 15.4221C28.4792 15.5725 28.6152 15.6976 28.7788 15.7848C28.9425 15.8721 29.1282 15.9186 29.3176 15.9196H35.5446C37.52 15.9169 39.4159 16.6325 40.817 17.9096C41.0981 18.1767 41.2552 18.5334 41.2552 18.9045C41.2552 19.2757 41.0981 19.6324 40.817 19.8995Z" fill="#F5683C"/>
</svg>
