<svg width="36" height="27" viewBox="0 0 36 27" fill="none" xmlns="http://www.w3.org/2000/svg">
<path d="M0.145379 15.7667L1.87709 22.3387V24.8556C1.87709 25.3192 2.07118 25.7638 2.41667 26.0916C2.76215 26.4194 3.23073 26.6035 3.71933 26.6035H7.40381C7.8924 26.6035 8.36098 26.4194 8.70647 26.0916C9.05196 25.7638 9.24605 25.3192 9.24605 24.8556V23.1078H25.8262V24.8556C25.8262 25.3192 26.0203 25.7638 26.3658 26.0916C26.7113 26.4194 27.1799 26.6035 27.6685 26.6035H31.3529C31.8415 26.6035 32.3101 26.4194 32.6556 26.0916C33.0011 25.7638 33.1952 25.3192 33.1952 24.8556V22.3387L34.9269 15.7667C35.138 14.9919 35.1189 14.1769 34.8717 13.4118C34.6246 12.6467 34.1591 11.9615 33.5268 11.432L31.3529 9.52677L29.5107 2.79745C29.4769 2.64432 29.4012 2.50234 29.2913 2.38575C29.1813 2.26916 29.041 2.18208 28.8843 2.13325C25.2101 1.03514 21.3878 0.446436 17.5361 0.385376C13.6844 0.446436 9.8622 1.03514 6.18793 2.13325C6.03128 2.18208 5.89093 2.26916 5.78098 2.38575C5.67103 2.50234 5.59536 2.64432 5.56157 2.79745L3.71933 9.52677L1.54548 11.432C0.913144 11.9615 0.447634 12.6467 0.200515 13.4118C-0.0466048 14.1769 -0.065688 14.9919 0.145379 15.7667ZM7.40381 24.8556H3.71933V23.1078H7.40381V24.8556ZM31.3529 24.8556H27.6685V23.1078H31.3529V24.8556ZM7.25643 3.68886C10.5954 2.74111 14.0521 2.218 17.5361 2.13325C21.0201 2.218 24.4769 2.74111 27.8158 3.68886L29.2528 9.12476H5.81948L7.25643 3.68886ZM2.77978 12.7429L4.99047 10.8726H30.0818L32.2925 12.7429C32.6817 13.0516 32.9725 13.4574 33.1319 13.9144C33.2914 14.3714 33.3133 14.8615 33.1952 15.3297L31.5556 21.3599H3.51668L1.87709 15.3297C1.75895 14.8615 1.78085 14.3714 1.94033 13.9144C2.0998 13.4574 2.39052 13.0516 2.77978 12.7429Z" fill="#F5683C"/>
<path d="M9.11711 19.612H10.1672C10.9001 19.612 11.6029 19.3358 12.1212 18.8441C12.6394 18.3524 12.9305 17.6855 12.9305 16.9901C12.9305 16.2947 12.6394 15.6278 12.1212 15.1361C11.6029 14.6444 10.9001 14.3682 10.1672 14.3682H6.13269C5.8171 14.3661 5.50623 14.441 5.22989 14.5856C4.95356 14.7303 4.72102 14.9399 4.55459 15.1943C4.38815 15.4487 4.29339 15.7394 4.2794 16.0386C4.26541 16.3377 4.33265 16.6353 4.47468 16.9027C4.90469 17.7205 5.56748 18.4078 6.38797 18.8866C7.20845 19.3654 8.15386 19.6167 9.11711 19.612ZM10.1672 16.1161C10.4115 16.1161 10.6458 16.2082 10.8185 16.3721C10.9913 16.536 11.0883 16.7583 11.0883 16.9901C11.0883 17.2219 10.9913 17.4442 10.8185 17.6081C10.6458 17.772 10.4115 17.8641 10.1672 17.8641H9.11711C8.49718 17.8665 7.88894 17.7041 7.36142 17.3951C6.83389 17.0861 6.40821 16.6431 6.13269 16.1161H10.1672Z" fill="#F5683C"/>
<path d="M24.9051 19.612H25.9552C26.9185 19.6167 27.8639 19.3654 28.6844 18.8866C29.5049 18.4078 30.1677 17.7205 30.5977 16.9027C30.7397 16.6353 30.807 16.3377 30.793 16.0386C30.779 15.7394 30.6842 15.4487 30.5178 15.1943C30.3514 14.9399 30.1188 14.7303 29.8425 14.5856C29.5661 14.441 29.2553 14.3661 28.9397 14.3682H24.9051C24.1722 14.3682 23.4693 14.6444 22.9511 15.1361C22.4329 15.6278 22.1417 16.2947 22.1417 16.9901C22.1417 17.6855 22.4329 18.3524 22.9511 18.8441C23.4693 19.3358 24.1722 19.612 24.9051 19.612ZM24.9051 16.1161H28.9397C28.6641 16.6431 28.2385 17.0861 27.7109 17.3951C27.1834 17.7041 26.5751 17.8665 25.9552 17.8641H24.9051C24.6608 17.8641 24.4265 17.772 24.2538 17.6081C24.081 17.4442 23.984 17.2219 23.984 16.9901C23.984 16.7583 24.081 16.536 24.2538 16.3721C24.4265 16.2082 24.6608 16.1161 24.9051 16.1161Z" fill="#F5683C"/>
</svg>
