<svg width="35" height="34" viewBox="0 0 35 34" fill="none" xmlns="http://www.w3.org/2000/svg">
<path d="M34.0789 14.7259C33.8347 14.7259 33.6004 14.8179 33.4277 14.9818C33.2549 15.1457 33.1579 15.368 33.1579 15.5997V18.2213H31.3158V5.11335C31.3158 3.95453 30.8306 2.84317 29.9669 2.02377C29.1033 1.20436 27.9319 0.744019 26.7105 0.744019H8.28947C7.06808 0.744019 5.89672 1.20436 5.03306 2.02377C4.16941 2.84317 3.68421 3.95453 3.68421 5.11335V9.48268H1.84211V6.86108C1.84211 6.62932 1.74507 6.40705 1.57234 6.24316C1.3996 6.07928 1.16533 5.98721 0.921053 5.98721C0.676774 5.98721 0.442501 6.07928 0.26977 6.24316C0.0970394 6.40705 0 6.62932 0 6.86108V12.1043C0 12.336 0.0970394 12.5583 0.26977 12.7222C0.442501 12.8861 0.676774 12.9781 0.921053 12.9781C1.16533 12.9781 1.3996 12.8861 1.57234 12.7222C1.74507 12.5583 1.84211 12.336 1.84211 12.1043V11.2304H3.68421V32.2032C3.68421 32.6667 3.87829 33.1113 4.22375 33.439C4.56921 33.7668 5.03776 33.9509 5.52632 33.9509H9.21053C9.69908 33.9509 10.1676 33.7668 10.5131 33.439C10.8586 33.1113 11.0526 32.6667 11.0526 32.2032V28.7077H23.9474V32.2032C23.9474 32.6667 24.1414 33.1113 24.4869 33.439C24.8324 33.7668 25.3009 33.9509 25.7895 33.9509H29.4737C29.9622 33.9509 30.4308 33.7668 30.7763 33.439C31.1217 33.1113 31.3158 32.6667 31.3158 32.2032V19.9691H33.1579V20.8429C33.1579 21.0747 33.2549 21.297 33.4277 21.4609C33.6004 21.6247 33.8347 21.7168 34.0789 21.7168C34.3232 21.7168 34.5575 21.6247 34.7302 21.4609C34.903 21.297 35 21.0747 35 20.8429V15.5997C35 15.368 34.903 15.1457 34.7302 14.9818C34.5575 14.8179 34.3232 14.7259 34.0789 14.7259ZM10.1316 26.96H5.52632V21.7168H29.4737V26.96H10.1316ZM5.52632 7.73495H16.5789V19.9691H5.52632V7.73495ZM18.4211 19.9691V7.73495H29.4737V19.9691H18.4211ZM8.28947 2.49175H26.7105C27.4434 2.49175 28.1462 2.76795 28.6644 3.2596C29.1826 3.75124 29.4737 4.41806 29.4737 5.11335V5.98721H5.52632V5.11335C5.52632 4.41806 5.81743 3.75124 6.33563 3.2596C6.85382 2.76795 7.55664 2.49175 8.28947 2.49175ZM9.21053 32.2032H5.52632V28.7077H9.21053V32.2032ZM29.4737 32.2032H25.7895V28.7077H29.4737V32.2032Z" fill="#F5683C"/>
</svg>
